<?xml version="1.0" encoding="UTF-8" standalone="no"?>
<svg
   xmlns:dc="http://purl.org/dc/elements/1.1/"
   xmlns:cc="http://creativecommons.org/ns#"
   xmlns:rdf="http://www.w3.org/1999/02/22-rdf-syntax-ns#"
   xmlns:svg="http://www.w3.org/2000/svg"
   xmlns="http://www.w3.org/2000/svg"
   xmlns:xlink="http://www.w3.org/1999/xlink"
   xmlns:sodipodi="http://sodipodi.sourceforge.net/DTD/sodipodi-0.dtd"
   xmlns:inkscape="http://www.inkscape.org/namespaces/inkscape"
   inkscape:export-ydpi="81.279999"
   inkscape:export-xdpi="81.279999"
   inkscape:export-filename="D:\dev\eclair-logo\png\logo-light320px.png"
   width="100mm"
   height="100mm"
   viewBox="0 0 100 100"
   version="1.1"
   id="svg8"
   inkscape:version="1.0 (4035a4fb49, 2020-05-01)"
   sodipodi:docname="light.svg">
  <defs
     id="defs2">
    <marker
       inkscape:isstock="true"
       style="overflow:visible"
       id="Arrow1Lstart"
       refX="0.0"
       refY="0.0"
       orient="auto"
       inkscape:stockid="Arrow1Lstart">
      <path
         transform="scale(0.8) translate(12.5,0)"
         style="fill-rule:evenodd;stroke:#000000;stroke-width:1.0pt"
         d="M 0.0,0.0 L 5.0,-5.0 L -12.5,0.0 L 5.0,5.0 L 0.0,0.0 z "
         id="path1065" />
    </marker>
    <rect
       x="-19.457222"
       y="14.218739"
       width="94.65873"
       height="78.704798"
       id="rect2283" />
    <rect
       x="22.076463"
       y="24.134438"
       width="60.990906"
       height="55.939512"
       id="rect2277" />
    <linearGradient
       id="linearGradient2031"
       inkscape:collect="always">
      <stop
         id="stop2027"
         offset="0"
         style="stop-color:#000000;stop-opacity:1" />
      <stop
         id="stop2029"
         offset="1"
         style="stop-color:#4d4d4d;stop-opacity:1" />
    </linearGradient>
    <linearGradient
       inkscape:collect="always"
       id="linearGradient2021">
      <stop
         style="stop-color:#000000;stop-opacity:1"
         offset="0"
         id="stop2017" />
      <stop
         style="stop-color:#4d4d4d;stop-opacity:1"
         offset="1"
         id="stop2019" />
    </linearGradient>
    <linearGradient
       inkscape:collect="always"
       id="linearGradient1865">
      <stop
         style="stop-color:#000000;stop-opacity:1"
         offset="0"
         id="stop1861" />
      <stop
         style="stop-color:#000000;stop-opacity:0"
         offset="1"
         id="stop1863" />
    </linearGradient>
    <linearGradient
       inkscape:collect="always"
       id="linearGradient1853">
      <stop
         style="stop-color:#bc5fd3;stop-opacity:1"
         offset="0"
         id="stop1849" />
      <stop
         style="stop-color:#55ddff;stop-opacity:1"
         offset="1"
         id="stop1851" />
    </linearGradient>
    <rect
       x="12.473214"
       y="17.764881"
       width="69.547619"
       height="58.397321"
       id="rect1404" />
    <clipPath
       clipPathUnits="userSpaceOnUse"
       id="clipPath1792">
      <path
         d="M 130,210.00009 A 50.000001,50.000001 0 0 0 79.999948,260.00014 50.000001,50.000001 0 0 0 130,310.0002 50.000001,50.000001 0 0 0 179.74942,264.99984 H 169.68646 A 39.999999,39.999999 0 0 1 130,300.0003 39.999999,39.999999 0 0 1 89.999854,260.00014 39.999999,39.999999 0 0 1 130,220 a 39.999999,39.999999 0 0 1 39.68646,34.99993 h 10.06296 A 50.000001,50.000001 0 0 0 130,210.00009 Z"
         style="fill:#808080;stroke-width:0.15875"
         id="path1794" />
    </clipPath>
    <linearGradient
       inkscape:collect="always"
       xlink:href="#linearGradient1853"
       id="linearGradient1855"
       x1="302.36221"
       y1="963.77954"
       x2="680.31494"
       y2="963.77954"
       gradientUnits="userSpaceOnUse" />
    <linearGradient
       inkscape:collect="always"
       xlink:href="#linearGradient1865"
       id="linearGradient1867"
       x1="85"
       y1="260"
       x2="85"
       y2="250"
       gradientUnits="userSpaceOnUse" />
    <linearGradient
       gradientUnits="userSpaceOnUse"
       y2="250"
       x2="85"
       y1="260"
       x1="85"
       id="linearGradient1867-9"
       xlink:href="#linearGradient1865"
       inkscape:collect="always"
       gradientTransform="translate(-170,-520)" />
    <linearGradient
       inkscape:collect="always"
       xlink:href="#linearGradient2021"
       id="linearGradient2023"
       x1="60"
       y1="260"
       x2="160"
       y2="260"
       gradientUnits="userSpaceOnUse" />
    <linearGradient
       inkscape:collect="always"
       xlink:href="#linearGradient2031"
       id="linearGradient2025"
       x1="226.77165"
       y1="982.67719"
       x2="604.72443"
       y2="982.67719"
       gradientUnits="userSpaceOnUse" />
    <clipPath
       clipPathUnits="userSpaceOnUse"
       id="clipPath2063">
      <path
         d="m 130.00005,210 a 50.000001,50.000001 0 0 0 -50.000051,50.00005 50.000001,50.000001 0 0 0 50.000051,50.00004 50.000001,50.000001 0 0 0 49.23368,-41.28068 l -9.93789,-1.24799 a 39.999999,39.999999 0 0 1 -39.29579,32.52877 39.999999,39.999999 0 0 1 -40.000145,-40.00014 39.999999,39.999999 0 0 1 40.000145,-40.00014 39.999999,39.999999 0 0 1 39.29631,32.52876 l 9.93737,-1.24798 A 50.000001,50.000001 0 0 0 130.00005,210 Z"
         style="fill:url(#linearGradient2067);fill-opacity:1;stroke-width:0.15875"
         id="path2065" />
    </clipPath>
    <linearGradient
       inkscape:collect="always"
       xlink:href="#linearGradient1853"
       id="linearGradient2067"
       gradientUnits="userSpaceOnUse"
       gradientTransform="matrix(0.26458333,0,0,0.26458333,2.3200003e-4,-9.9799952e-5)"
       x1="302.36221"
       y1="963.77954"
       x2="680.31494"
       y2="963.77954" />
    <clipPath
       id="clipPath2063-8"
       clipPathUnits="userSpaceOnUse">
      <path
         id="path2065-2"
         style="fill:url(#linearGradient2067);fill-opacity:1;stroke-width:0.15875"
         d="m 130.00005,210 a 50.000001,50.000001 0 0 0 -50.000051,50.00005 50.000001,50.000001 0 0 0 50.000051,50.00004 50.000001,50.000001 0 0 0 49.23368,-41.28068 l -9.93789,-1.24799 a 39.999999,39.999999 0 0 1 -39.29579,32.52877 39.999999,39.999999 0 0 1 -40.000145,-40.00014 39.999999,39.999999 0 0 1 40.000145,-40.00014 39.999999,39.999999 0 0 1 39.29631,32.52876 l 9.93737,-1.24798 A 50.000001,50.000001 0 0 0 130.00005,210 Z" />
    </clipPath>
  </defs>
  <sodipodi:namedview
     id="base"
     pagecolor="#ffffff"
     bordercolor="#666666"
     borderopacity="1.0"
     inkscape:pageopacity="0.0"
     inkscape:pageshadow="2"
     inkscape:zoom="1.4142136"
     inkscape:cx="152.23846"
     inkscape:cy="154.60015"
     inkscape:document-units="mm"
     inkscape:current-layer="layer1"
     inkscape:document-rotation="0"
     showgrid="false"
     inkscape:snap-page="true"
     inkscape:snap-bbox="false"
     inkscape:bbox-nodes="false"
     inkscape:snap-bbox-edge-midpoints="false"
     inkscape:bbox-paths="false"
     inkscape:snap-smooth-nodes="false"
     inkscape:snap-grids="true"
     inkscape:object-paths="false"
     inkscape:snap-intersection-paths="false"
     showguides="false"
     inkscape:guide-bbox="true"
     inkscape:snap-bbox-midpoints="false"
     inkscape:snap-center="true"
     inkscape:snap-object-midpoints="false"
     inkscape:object-nodes="true"
     inkscape:snap-others="true"
     inkscape:snap-nodes="true"
     inkscape:window-width="1920"
     inkscape:window-height="1017"
     inkscape:window-x="-8"
     inkscape:window-y="-8"
     inkscape:window-maximized="1">
    <inkscape:grid
       type="xygrid"
       id="grid1408"
       spacingx="5"
       spacingy="5"
       empspacing="1"
       units="mm" />
  </sodipodi:namedview>
  <metadata
     id="metadata5">
    <rdf:RDF>
      <cc:Work
         rdf:about="">
        <dc:format>image/svg+xml</dc:format>
        <dc:type
           rdf:resource="http://purl.org/dc/dcmitype/StillImage" />
        <dc:title />
      </cc:Work>
    </rdf:RDF>
  </metadata>
  <g
     inkscape:label="Layer 1"
     inkscape:groupmode="layer"
     id="layer1">
    <text
       xml:space="preserve"
       id="text1402"
       style="line-height:1.25;font-family:sans-serif;font-size:3.70416667px;white-space:pre;shape-inside:url(#rect1404);" />
    <text
       xml:space="preserve"
       id="text2275"
       style="font-size:3.70417px;line-height:1.25;font-family:sans-serif;white-space:pre;shape-inside:url(#rect2277);"><tspan
         style="visibility:hidden"
         x="22.076172"
         y="113.89257"><tspan
           dx="0 23.291601 25.44961 23.291595 27.533203 12.724808"
           style="font-style:normal;font-variant:normal;font-weight:normal;font-stretch:normal;font-size:38.1px;font-family:'Liberation Serif';-inkscape-font-specification:'Liberation Serif'">ECLAIR</tspan></tspan></text>
    <g
       id="g2075"
       transform="matrix(0.75481823,0,0,0.75481823,-40.288887,-146.25285)">
      <path
         transform="scale(0.26458333)"
         d="M 415.74805,793.70117 A 188.97638,188.97638 0 0 0 226.77148,982.67773 188.97638,188.97638 0 0 0 415.74805,1171.6543 188.97638,188.97638 0 0 0 603.24414,1006.2832 l -37.49805,-4.709 h -0.002 A 151.1811,151.1811 0 0 1 415.74805,1133.8594 151.1811,151.1811 0 0 1 264.56641,982.67773 151.1811,151.1811 0 0 1 415.74805,831.49609 151.1811,151.1811 0 0 1 565.74414,963.7793 h 0.0156 l 37.48242,-4.70703 A 188.97638,188.97638 0 0 0 415.74805,793.70117 Z"
         style="fill:url(#linearGradient2025);fill-opacity:1;stroke-width:0.6"
         id="path1416" />
      <path
         transform="scale(0.26458333)"
         d="M 491.33789,793.70117 A 188.97638,188.97638 0 0 0 302.36133,982.67773 188.97638,188.97638 0 0 0 491.33789,1171.6543 188.97638,188.97638 0 0 0 677.41797,1015.6328 l -37.56055,-4.7168 A 151.1811,151.1811 0 0 1 491.33789,1133.8594 151.1811,151.1811 0 0 1 340.15625,982.67773 151.1811,151.1811 0 0 1 491.33789,831.49609 151.1811,151.1811 0 0 1 639.85938,954.43945 l 37.55859,-4.71679 A 188.97638,188.97638 0 0 0 491.33789,793.70117 Z"
         style="fill:url(#linearGradient1855);fill-opacity:1;stroke-width:0.6"
         id="path1416-9" />
      <g
         clip-path="url(#clipPath2063)"
         id="g1927">
        <rect
           style="fill:url(#linearGradient1867);fill-opacity:1;stroke:none;stroke-width:0.15875"
           id="rect1859"
           width="20"
           height="10"
           x="75"
           y="250" />
        <rect
           y="-270"
           x="-95"
           height="10"
           width="20"
           id="rect1859-6"
           style="fill:url(#linearGradient1867-9);fill-opacity:1;stroke:none;stroke-width:0.15875"
           transform="scale(-1)" />
      </g>
      <rect
         style="fill:url(#linearGradient2023);fill-opacity:1;stroke-width:0.15875"
         id="rect1442-7"
         width="75"
         height="10"
         x="65"
         y="255" />
    </g>
  </g>
</svg>
